{
	"asset":{
		"version":"2.0",
		"generator":"Created using the official Cinema 4D glTF Exporter 1.000x284978"
	},
	"scenes":[{
		"nodes":[0]
	}],
	"nodes":[{
		"name":"16",
		"translation":[0.25860005617141726,
		16.104534149169923,
		-22.246238708496095],
		"rotation":[0.0,
		0.0,
		0.0,
		-1.0],
		"mesh":0,
		"scale":[1.0,
		1.0,
		1.0]
	}],
	"meshes":[{
		"name":"16",
		"primitives":[{
			"attributes":{
				"POSITION":1,
				"TEXCOORD_0":3,
				"NORMAL":2
			},
			"indices":0
		}]
	}],
	"accessors":[{
		"bufferView":0,
		"type":"SCALAR",
		"componentType":5123,
		"count":149268,
		"byteOffset":0,
		"min":[0],
		"max":[45541]
	},
	{
		"bufferView":1,
		"type":"VEC3",
		"componentType":5126,
		"count":45542,
		"byteOffset":0,
		"min":[-8.5,
		-8.5,
		-46.330257415771487],
		"max":[8.5,
		8.5,
		46.330257415771487]
	},
	{
		"bufferView":1,
		"type":"VEC3",
		"componentType":5126,
		"count":45542,
		"byteOffset":12,
		"min":[-1.0,
		-1.0,
		-1.0],
		"max":[1.0,
		1.0,
		1.0]
	},
	{
		"bufferView":1,
		"type":"VEC2",
		"componentType":5126,
		"count":45542,
		"byteOffset":24,
		"min":[0.0,
		0.0],
		"max":[1.0,
		1.0]
	}],
	"bufferViews":[{
		"buffer":0,
		"target":34963,
		"byteOffset":0,
		"byteLength":298536
	},
	{
		"buffer":0,
		"target":34962,
		"byteOffset":298536,
		"byteLength":1457344,
		"byteStride":32
	}],
	"buffers":[{
		"uri":"data:application/octet-stream;base64,",
		"byteLength":1755880
	}]
}